<svg clip-rule="evenodd" fill-rule="evenodd" stroke-linejoin="round" stroke-miterlimit="2" viewBox="0 0 154 120" xmlns="http://www.w3.org/2000/svg"><path d="m153.88 2.031c-.001-1.04-.857-1.896-1.897-1.896h-115.026c-1.049 0-1.898.85-1.898 1.896v91.04c0 1.046.85 1.896 1.898 1.896h115.025c1.048 0 1.898-.85 1.898-1.897z" fill="#fff"/><path d="m151.936 0h-115.23c-1.064.006-1.938.88-1.944 1.944v91.635c.007 1.063.88 1.936 1.943 1.943h115.231c1.064-.006 1.937-.879 1.944-1.943v-91.635c-.006-1.064-.88-1.938-1.944-1.944zm1.388 93.579c0 .761-.627 1.388-1.388 1.388h-115.23c-.761-.003-1.386-.627-1.39-1.388v-91.635c.001-.762.628-1.388 1.39-1.389h115.23c.761.001 1.388.627 1.388 1.389z" fill="#373f43" fill-rule="nonzero"/><path d="m223.122 97.04h499v2h-499z" fill="#373f43" transform="matrix(.23816 0 0 .27768 -18.099 -19.16)"/><circle cx="39.759" cy="4.165" fill="#ed1c24" r="1.666"/><circle cx="44.549" cy="4.165" fill="#ffc814" r="1.666"/><circle cx="49.339" cy="4.165" fill="#8cc63f" r="1.666"/><g fill-rule="nonzero"><path d="m72.804 19.16h-24.436c-1.064.006-1.938.88-1.944 1.944v24.436c.007 1.064.88 1.937 1.944 1.943h24.436c1.064-.006 1.937-.879 1.944-1.943v-24.436c-.006-1.064-.88-1.938-1.944-1.944zm1.388 26.38c0 .761-.627 1.388-1.388 1.388h-24.436c-.76-.004-1.384-.628-1.388-1.388v-24.436c0-.762.626-1.388 1.388-1.389h24.436c.761.001 1.388.627 1.388 1.389z" fill="#373f43"/><path d="m106.677 19.299h-24.435c-.988.007-1.798.817-1.805 1.805v24.436c.002.99.815 1.803 1.805 1.805h24.435c.988-.007 1.798-.817 1.805-1.805v-24.436c-.007-.988-.817-1.798-1.805-1.805z" fill="#e4a000"/><path d="m140.551 19.299h-24.436c-.988.007-1.798.817-1.805 1.805v24.436c.002.99.816 1.803 1.805 1.805h24.436c.988-.007 1.798-.817 1.805-1.805v-24.436c-.007-.988-.817-1.798-1.805-1.805z" fill="#e6e6e6"/><path d="m72.804 55.953h-24.436c-.988.007-1.798.817-1.805 1.805v24.436c.002.99.816 1.803 1.805 1.805h24.436c.988-.007 1.798-.817 1.805-1.805v-24.436c-.007-.988-.817-1.798-1.805-1.805z" fill="#e6e6e6"/><path d="m106.677 55.953h-24.435c-.988.007-1.798.817-1.805 1.805v24.436c.002.99.815 1.803 1.805 1.805h24.435c.988-.007 1.798-.817 1.805-1.805v-24.436c-.007-.988-.817-1.798-1.805-1.805z" fill="#dc8800"/><path d="m140.551 55.953h-24.436c-.988.007-1.798.817-1.805 1.805v24.436c.002.99.816 1.803 1.805 1.805h24.436c.988-.007 1.798-.817 1.805-1.805v-24.436c-.007-.988-.817-1.798-1.805-1.805z" fill="#e6e6e6"/><path d="m66.834 59.98h-24.436c-.989-.005-1.8-.817-1.805-1.806v-24.436c.006-.988.817-1.799 1.805-1.805h24.436c.99.002 1.804.816 1.805 1.805v24.436c-.005.988-.817 1.8-1.805 1.805z" fill="#ffc814"/><path d="m34.928 113.046-5.586-.175-8.027-33.45-13.692 32.767-6.253-.196c5.944-25.516 11.925-51.503 16.448-58.713l12.557 3.635z" fill="#3596d1"/><path d="m10.676 119.96-.387.032c-.391.031-.784-.03-1.147-.178l-7.524-.891c-.976-.399-1.616-1.353-1.616-2.407 0-.342.067-.681.198-.997l1.628-3.908h5.27l5.446 4.416c.29.42.445.918.445 1.428-.004 1.302-1.016 2.398-2.313 2.506zm27.622 0-.388.032c-.391.031-.784-.03-1.147-.178l-7.523-.891c-.976-.399-1.617-1.353-1.617-2.408 0-.342.067-.68.198-.996l1.628-3.908h5.271l5.445 4.416c.29.42.446.918.446 1.428-.004 1.302-1.016 2.398-2.313 2.506z" fill="#373f43"/><path d="m33.96 48.53-9.87-6.506 4.563-2.763 6.46 3.999 10.51 1.57 1.598-1.584c.465-.461 1.094-.719 1.748-.719 1.362 0 2.484 1.121 2.484 2.483-.002 1.149-.8 2.154-1.918 2.418l-1.577.369-13.997.733z" fill="#a0616a"/><path d="m24.14 43.807c-1.102-2.281-3.02-4.152-5.627-5.676l5.123-5.138c2.466 1.39 4.63 3.614 6.64 6.26l-6.135 4.554z" fill="#e6e6e6"/></g><circle cx="23.939" cy="21.786" fill="#a0616a" r="5.707"/><path d="m26.823 33.431-7.27-1.818c.649-1.855.406-4.642 0-7.6h7.27c-1.059 3.452-1.36 6.763 0 9.418z" fill="#a0616a" fill-rule="nonzero"/><path d="m30.789 58.216-13.632-3.12c-1.442-10.045-1.748-20.53 2.56-24.144l6.776.826 5.106 6.55c.395.506.733 1.054 1.01 1.633 1.098 2.3.89 4.99-.372 7.204-1.917 3.365-2.502 7.026-1.448 11.051z" fill="#e6e6e6" fill-rule="nonzero"/><path d="m17.617 51.623 2.223-11.61 4.302 3.154-1.216 7.5 6.709 8.182 2.075.868c.921.388 1.523 1.294 1.523 2.293 0 .507-.155 1.002-.444 1.419-.465.664-1.226 1.06-2.036 1.06-.799 0-1.55-.384-2.017-1.032l-.945-1.314z" fill="#a0616a" fill-rule="nonzero"/><path d="m26.024 37.71c-.935 2.355-1.015 5.033-.374 7.985l-7.25-.299c-.643-2.756-.469-5.853.12-9.124z" fill="#e6e6e6" fill-rule="nonzero"/><path d="m26.41 15.503s-6.775-3.8-10.08 3.14c-3.304 6.94-2.313 13.053-2.313 13.053l6.28-.165 1.486-1.487 1.157 1.321.018-.028c1.667-2.761 2.623-5.892 2.782-9.113.052-.88.356-1.69 1.166-2.094 2.313-1.157 2.809-1.157 2.809-1.157s1.322-3.14-3.305-3.47z" fill="#373f43" fill-rule="nonzero"/></svg>