<svg xmlns="http://www.w3.org/2000/svg" width="188" height="32" fill="none"><path fill="#FFC814" fill-rule="evenodd" d="M26.7031 27.8932C25.0458 28.3613 23.2972 28.6118 21.4901 28.6118C17.8893 28.6118 14.5207 27.6173 11.644 25.8879C19.9275 22.0923 26.0947 14.475 27.8892 5.2926C30.4445 8.12812 31.9999 11.8824 31.9999 16C31.9999 20.7211 29.9552 24.9646 26.7031 27.8932Z" clip-rule="evenodd"/><path fill="#479FD6" fill-rule="evenodd" d="M27.8931 5.29691C28.3612 6.95416 28.6117 8.70271 28.6117 10.5098C28.6117 14.1107 27.6172 17.4793 25.8878 20.3559C22.0922 12.0725 14.4749 5.90522 5.29248 4.11071C8.12803 1.5554 11.8823 1.79984e-07 15.9999 0C20.721 -2.06369e-07 24.9645 2.04472 27.8931 5.29691Z" clip-rule="evenodd"/><path fill="#ED1C24" fill-rule="evenodd" d="M5.29688 4.10677C6.95413 3.63866 8.70271 3.38818 10.5098 3.38818C14.1107 3.38818 17.4793 4.38269 20.3559 6.11204C12.0725 9.90768 5.90519 17.525 4.11071 26.7074C1.5554 23.8719 1.79987e-07 20.1175 0 15.9999C-2.06362e-07 11.2789 2.04472 7.0354 5.29688 4.10677Z" clip-rule="evenodd"/><path fill="#8CC63F" fill-rule="evenodd" d="M4.10677 26.7032C3.63866 25.0459 3.38818 23.2973 3.38818 21.4903C3.38818 17.8894 4.38269 14.5208 6.11204 11.6442C9.90768 19.9276 17.525 26.0949 26.7074 27.8893C23.8719 30.4447 20.1175 32.0001 15.9999 32.0001C11.2789 32.0001 7.0354 29.9553 4.10677 26.7032Z" clip-rule="evenodd"/><path fill="#FFC814" fill-rule="evenodd" d="M20.0628 20.0128C17.6466 22.4424 14.7988 24.4423 11.644 25.8878C14.5207 27.6172 17.8893 28.6117 21.4901 28.6117C23.2972 28.6117 25.0458 28.3612 26.7031 27.8931C27.2335 27.4154 27.7318 26.9028 28.1944 26.3588L20.0628 20.0128Z" clip-rule="evenodd"/><path fill="url(#a)" fill-rule="evenodd" d="M14.9572 3.90759C16.8864 4.36673 18.7024 5.11798 20.3559 6.11198C15.5955 8.29329 11.534 11.7367 8.59972 16.0141C7.649 14.6395 6.81499 13.1781 6.11206 11.644C8.16762 8.22474 11.2614 5.50057 14.9572 3.90759Z" clip-rule="evenodd"/><path fill="url(#b)" fill-rule="evenodd" d="M28.0923 14.9572C27.6332 16.8864 26.8819 18.7024 25.8879 20.3559C23.7066 15.5955 20.2632 11.534 15.9858 8.59972C17.3604 7.64897 18.8218 6.81499 20.3559 6.11206C23.7752 8.16762 26.4993 11.2614 28.0923 14.9572Z" clip-rule="evenodd"/><path fill="url(#c)" fill-rule="evenodd" d="M17.0427 28.0922C15.1135 27.633 13.2975 26.8818 11.644 25.8878C16.4044 23.7065 20.4659 20.263 23.4002 15.9857C24.3509 17.3603 25.1849 18.8217 25.8878 20.3558C23.8323 23.775 20.7385 26.4992 17.0427 28.0922Z" clip-rule="evenodd"/><path fill="url(#d)" fill-rule="evenodd" d="M3.90771 17.0428C4.36685 15.1136 5.1181 13.2976 6.11211 11.6442C8.29338 16.4045 11.7369 20.466 16.0142 23.4003C14.6396 24.351 13.1782 25.185 11.6441 25.888C8.22486 23.8324 5.50069 20.7386 3.90771 17.0428Z" clip-rule="evenodd"/><path fill="#fff" d="M55.416 23.5 59.532 9.976H55.836L53.316 19.076 50.348 9.976H47.184L44.216 19.076 41.696 9.976H38L42.116 23.5H45.924L48.78 14.288 51.636 23.5H55.416ZM67.64 23.836C69.74 23.836 71.868 23.192 73.212 21.96L71.644 19.664C70.776 20.504 69.18 21.008 68.032 21.008 65.736 21.008 64.364 19.58 64.14 17.872H74.192V17.088C74.192 12.664 71.448 9.64 67.416 9.64 63.3 9.64 60.416 12.804 60.416 16.724 60.416 21.064 63.524 23.836 67.64 23.836ZM70.748 15.464H64.084C64.251 14.12 65.204 12.468 67.416 12.468 69.768 12.468 70.664 14.176 70.748 15.464ZM80.316 19.16V14.372C80.904 13.476 82.22 12.804 83.368 12.804 85.44 12.804 86.812 14.4 86.812 16.752 86.812 19.104 85.44 20.672 83.368 20.672 82.22 20.672 80.904 20.028 80.316 19.16ZM80.316 23.5V21.764C81.38 23.108 82.864 23.836 84.488 23.836 87.904 23.836 90.48 21.26 90.48 16.752 90.48 12.328 87.932 9.64 84.488 9.64 82.892 9.64 81.38 10.34 80.316 11.712V4.824H76.76V23.5H80.316ZM104.842 23.5V14.764C104.842 10.872 102.014 9.64 98.934 9.64 96.806 9.64 94.678 10.312 93.026 11.768L94.37 14.148C95.518 13.084 96.862 12.552 98.318 12.552 100.11 12.552 101.286 13.448 101.286 14.82V16.64C100.39 15.576 98.794 14.988 97.002 14.988 94.846 14.988 92.298 16.192 92.298 19.356 92.298 22.38 94.846 23.836 97.002 23.836 98.766 23.836 100.362 23.192 101.286 22.1V23.5H104.842ZM98.43 21.428C97.03 21.428 95.882 20.7 95.882 19.44 95.882 18.124 97.03 17.396 98.43 17.396 99.578 17.396 100.698 17.788 101.286 18.572V20.252C100.698 21.036 99.578 21.428 98.43 21.428ZM121.249 23.5V4.824H117.665V11.712C116.601 10.34 115.089 9.64 113.493 9.64 110.049 9.64 107.501 12.328 107.501 16.752 107.501 21.26 110.077 23.836 113.493 23.836 115.117 23.836 116.601 23.108 117.665 21.764V23.5H121.249ZM114.585 20.672C112.569 20.672 111.169 19.076 111.169 16.752 111.169 14.4 112.569 12.804 114.585 12.804 115.789 12.804 117.077 13.448 117.665 14.344V19.132C117.077 20.028 115.789 20.672 114.585 20.672ZM131.048 23.836C135.528 23.836 138.216 20.588 138.216 16.724 138.216 12.888 135.528 9.64 131.048 9.64 126.596 9.64 123.908 12.888 123.908 16.724 123.908 20.588 126.596 23.836 131.048 23.836ZM131.048 20.672C128.836 20.672 127.604 18.852 127.604 16.724 127.604 14.624 128.836 12.804 131.048 12.804 133.26 12.804 134.52 14.624 134.52 16.724 134.52 18.852 133.26 20.672 131.048 20.672ZM144.41 23.5V14.568C144.998 13.7 146.566 13.028 147.742 13.028 148.134 13.028 148.47 13.056 148.722 13.112V9.64C147.042 9.64 145.362 10.62 144.41 11.824V9.976H140.854V23.5H144.41ZM153.22 23.78C154.06 23.78 154.76 23.08 154.76 22.24 154.76 21.4 154.06 20.7 153.22 20.7 152.38 20.7 151.68 21.4 151.68 22.24 151.68 23.08 152.38 23.78 153.22 23.78ZM170.262 23.5V4.824H168.162V12.02C167.07 10.536 165.418 9.64 163.598 9.64 160.042 9.64 157.578 12.44 157.578 16.752 157.578 21.148 160.07 23.836 163.598 23.836 165.502 23.836 167.154 22.856 168.162 21.484V23.5H170.262ZM164.102 21.96C161.386 21.96 159.762 19.748 159.762 16.752 159.762 13.756 161.386 11.516 164.102 11.516 165.782 11.516 167.406 12.524 168.162 13.7V19.832C167.406 21.008 165.782 21.96 164.102 21.96ZM180.571 23.836C182.783 23.836 184.603 23.108 185.947 21.764L184.939 20.392C183.875 21.484 182.307 22.1 180.767 22.1 177.855 22.1 176.063 19.972 175.895 17.424H186.843V16.892C186.843 12.832 184.435 9.64 180.347 9.64 176.483 9.64 173.683 12.804 173.683 16.724 173.683 20.952 176.567 23.836 180.571 23.836ZM184.771 15.884H175.895C176.007 13.812 177.435 11.376 180.319 11.376 183.399 11.376 184.743 13.868 184.771 15.884Z"/><defs><linearGradient id="a" x1="16.456" x2="7.867" y1="5.979" y2="15.009" gradientUnits="userSpaceOnUse"><stop stop-color="#ED1C24"/><stop offset=".348" stop-color="#EA1B23"/><stop offset=".557" stop-color="#E2171E"/><stop offset=".73" stop-color="#D41116"/><stop offset=".882" stop-color="#C0090C"/><stop offset="1" stop-color="#A00"/></linearGradient><linearGradient id="b" x1="25.998" x2="17.408" y1="16.647" y2="7.837" gradientUnits="userSpaceOnUse"><stop stop-color="#479FD6"/><stop offset=".393" stop-color="#459DD3"/><stop offset=".629" stop-color="#3E95CB"/><stop offset=".823" stop-color="#3388BD"/><stop offset=".995" stop-color="#2476A9"/><stop offset="1" stop-color="#2375A8"/></linearGradient><linearGradient id="c" x1="16.372" x2="23.861" y1="25.853" y2="16.162" gradientUnits="userSpaceOnUse"><stop stop-color="#FFC814"/><stop offset=".348" stop-color="#FEC513"/><stop offset=".557" stop-color="#FABD11"/><stop offset=".73" stop-color="#F4AF0C"/><stop offset=".882" stop-color="#EC9B06"/><stop offset="1" stop-color="#E38500"/></linearGradient><linearGradient id="d" x1="6.094" x2="15.234" y1="15.915" y2="24.064" gradientUnits="userSpaceOnUse"><stop stop-color="#8CC63F"/><stop offset=".38" stop-color="#8AC33D"/><stop offset=".609" stop-color="#82BB37"/><stop offset=".797" stop-color="#75AD2C"/><stop offset=".963" stop-color="#63991D"/><stop offset="1" stop-color="#5E9319"/></linearGradient></defs></svg>
