<svg clip-rule="evenodd" fill-rule="evenodd" stroke-linejoin="round" stroke-miterlimit="2" viewBox="0 0 327 299" xmlns="http://www.w3.org/2000/svg"><path d="m305.264 177.455c13.244-33.391 10.24-71.11-8.123-101.984l-185.166 25.639 177.448-36.982c-21.866-28.467-55.798-45.173-91.694-45.143-63.9 0-115.7 51.801-115.7 115.701.001 5.281.361 10.556 1.076 15.788zm-215.502-1.113c16.724 43.315 58.754 74.044 107.967 74.044 46.18 0 86.035-27.057 104.591-66.181z" fill="#c3c5c7" fill-opacity=".2" fill-rule="nonzero"/><path d="m299.46 216.583c0 45.468-67.038 82.324-149.73 82.324-44.424 0-84.33-10.635-111.748-27.532-17.891-11.021-30.468-24.71-35.514-39.837-1.628-4.818-2.462-9.869-2.468-14.955 0-45.463 124.081-250.544 149.73-82.32s149.73 36.857 149.73 82.32z" fill="#3596d1" fill-rule="nonzero"/><path d="m224.141 246.438c0 16.788-53.018 30.4-118.422 30.4-25.191 0-48.545-2.019-67.737-5.463-17.891-11.021-30.468-24.71-35.514-39.837 20.305-9.252 58.935-15.499 103.251-15.499 65.404 0 118.422 13.611 118.422 30.399z" fill-opacity=".1" fill-rule="nonzero"/><path d="m138.66 73.282c-9.385-15.859-27.952-16.598-27.952-16.598s-18.094-2.313-29.7 21.839c-10.819 22.511-25.75 44.247-2.404 49.517l4.217-13.125 2.611 14.102c3.324.239 6.659.296 9.989.17 25.001-.807 48.811.237 48.044-8.735-1.019-11.926 4.226-31.912-4.805-47.17zm-61.389 138.876c-.348 1.731-.606 3.49-1.197 5.154-.588 1.651-1.494 3.178-2.031 4.847-1.712 5.318.661 11.248 4.451 15.353 3.286 3.545 7.529 6.065 12.215 7.253 3.419.86 6.973.984 10.497 1.103 9.756.331 19.764.627 29.008-2.509 2.921-1.015 5.742-2.296 8.428-3.828.848-.404 1.595-.993 2.187-1.722.705-1.004.795-2.306.789-3.533-.021-4.136-.859-8.25-.66-12.382.11-2.288.538-4.574.328-6.856-.478-5.173-4.587-9.804-9.667-10.895-2.622-.563-5.342-.256-8.012.001-6.931.666-13.891.977-20.853.932-7.114-.045-14.184-1.131-21.262-1.245-2.094-.033-2.051.612-2.718 2.638-.614 1.865-1.115 3.764-1.503 5.689z" fill="#202527" fill-rule="nonzero"/><path d="m77.271 212.158c-.348 1.731-.606 3.49-1.197 5.154-.588 1.651-1.494 3.178-2.031 4.847-1.712 5.318.661 11.248 4.451 15.353 3.286 3.545 7.529 6.065 12.215 7.253 3.419.86 6.973.984 10.497 1.103 9.756.331 19.764.627 29.008-2.509 2.921-1.015 5.742-2.296 8.428-3.828.848-.404 1.595-.993 2.187-1.722.705-1.004.795-2.306.789-3.533-.021-4.136-.859-8.25-.66-12.382.11-2.288.538-4.574.328-6.856-.478-5.173-4.587-9.804-9.667-10.895-2.622-.563-5.342-.256-8.012.001-6.931.666-13.891.977-20.853.932-7.114-.045-14.184-1.131-21.262-1.245-2.094-.033-2.051.612-2.718 2.638-.614 1.865-1.115 3.764-1.503 5.689z" fill="#202527" fill-rule="nonzero"/><path d="m97.459 110.03c-.342 1.79-.711 3.646-1.787 5.117-1.238 1.692-3.255 2.659-4.587 4.279-2.004 2.438-2.119 5.869-2.127 9.024-.008 2.908.051 6.009 1.673 8.422 1.052 1.566 2.653 2.664 4.218 3.719 6.08 4.097 12.65 8.268 19.98 8.403 3.038.056 6.294-.728 8.293-3.016.863-1.075 1.541-2.285 2.008-3.582 1.874-4.621 3.01-9.507 3.367-14.481.167-2.339.151-4.748-.641-6.956-.891-2.483-2.691-4.526-3.881-6.88-1.407-2.799-1.922-5.963-1.475-9.063.06-.218.041-.451-.051-.657-.199-.224-.491-.342-.789-.319l-14.535-1.047c-1.354-.067-2.702-.221-4.036-.462-.784-.159-2.853-1.272-3.6-.976-1.383.548-1.746 6.991-2.03 8.475z" fill="#a0616a" fill-rule="nonzero"/><path d="m97.459 110.484c-.342 1.79-.711 3.646-1.787 5.117-1.238 1.692-3.255 2.659-4.587 4.279-2.004 2.438-2.119 5.868-2.127 9.024-.008 2.907.051 6.008 1.673 8.422 1.052 1.566 2.653 2.664 4.218 3.718 6.08 4.098 12.65 8.269 19.98 8.404 3.038.056 6.294-.728 8.293-3.016.863-1.075 1.541-2.285 2.008-3.582 1.874-4.621 3.01-9.507 3.367-14.481.167-2.34.151-4.748-.641-6.956-.891-2.483-2.691-4.526-3.881-6.88-1.407-2.799-1.922-5.963-1.475-9.063.06-.218.042-.451-.051-.657-.199-.224-.491-.342-.789-.32l-14.535-1.046c-1.354-.067-2.702-.222-4.036-.462-.784-.159-2.853-1.272-3.6-.976-1.383.548-1.746 6.991-2.03 8.475z" fill-opacity=".1" fill-rule="nonzero"/><circle cx="111.36" cy="90.654" fill="#a0616a" r="21.325"/><g fill-rule="nonzero"><path d="m100.45 138.417c1.112 1.162 2.289 2.313 3.746 2.994 1.449.677 3.081.846 4.679.891 3.844.108 8.012-.597 10.686-3.36 3.447-3.563 3.333-9.309 6.035-13.465.218-.377.515-.702.871-.952.453-.247.966-.364 1.481-.34 3.412-.032 6.385 2.181 9.067 4.29 1.202.945 2.434 1.924 3.192 3.251.53 1.035.893 2.147 1.076 3.296 1.332 6.499 1.763 13.144 2.191 19.764.236 3.656.473 7.316.455 10.981-.058 12.071-2.864 23.941-5.654 35.686-.359 1.513-.851 3.205-2.228 3.929-.613.276-1.272.437-1.944.475-7.991.938-16 1.878-24.045 2.002-3.14.048-6.278-.028-9.416-.228-.54-.007-1.075-.1-1.586-.276-.693-.333-1.288-.839-1.729-1.469-4.352-5.484-4.609-13.066-4.581-20.067.068-17.118.68-34.23 1.835-51.31.095-1.41.116-3.123-.9-4.233 1.83 2.93 4.375 5.639 6.769 8.141z" fill="#fff"/><path d="m95.933 113.794c-.72 1.304-6.03 4.542-7.055 5.622-5.728 6.038-16.182 5.811-21.421 12.278-1.843 2.275-2.8 5.133-3.504 7.975-.997 4.02-1.528 8.404.14 12.194 1.606 3.647 4.986 6.168 7.28 9.425 2.52 3.577 3.653 7.92 4.738 12.159.802 3.129 1.61 6.336 1.298 9.551-.355 3.656-2.124 7.003-3.169 10.525-1.044 3.521-1.224 7.715 1.191 10.482 1.774 2.033 4.557 2.839 7.217 3.293 3.395.578 6.846.743 10.287.895 3.04.134 6.392.161 8.73-1.789 1.844-1.538 2.646-4.034 2.75-6.433.103-2.4-.396-4.778-.708-7.159-.325-2.469-.449-4.959-.553-7.446-.468-11.162-.532-22.338-.192-33.505.071-2.325.157-4.679-.339-6.952-.652-2.99-2.268-5.662-3.616-8.408-2.676-5.452-3.941-10.749-3.528-16.808.409-5.981 3.017-10.538.454-5.899zm29.946.454c1.097 1.128 4.825 1.499 6.22 2.225 1.282.667 2.701 1.016 4.09 1.416 5.09 1.469 9.932 3.691 14.364 6.593.921.539 1.736 1.242 2.403 2.075.78 1.086 1.064 2.441 1.329 3.753.683 3.384 1.37 6.81 1.216 10.26-.163 3.662-1.266 7.208-2.36 10.707l-4.089 13.071c-3.052 9.757-6.123 19.61-6.982 29.797-.475 5.646-.264 11.329.629 16.924.09.562.165 1.207-.206 1.639-.269.266-.624.429-1.001.461-1.974.308-3.883-.698-5.671-1.588-5.465-2.72-11.297-4.628-17.312-5.665 2.35-3.397 4.164-7.135 5.377-11.084.688-2.508 1.231-5.053 1.624-7.624l1.902-11c.698-4.034 1.396-8.078 1.632-12.165.144-1.532.054-3.077-.265-4.583-.364-1.452-1.088-2.783-1.737-4.132-3.135-6.521-4.605-13.962-3.372-21.09.54-3.12 1.589-6.244 1.151-9.38-.42-3.015.017-5.358-.757-8.341-3.176-12.251-.249-4.39 1.815-2.269z" fill="#ed1c24"/><path d="m67.403 142.003c-1.429 2.965-3.818 5.491-4.631 8.681-.317 1.491-.452 3.015-.404 4.538-.019 2.295-.032 4.638.673 6.823.454 1.406 1.192 2.703 1.724 4.082.742 1.927 1.072 3.987.97 6.049-.143 2.857-1.114 5.63-1.19 8.489-.119 4.496 1.961 8.722 3.99 12.736 1.43-3.529 4.874-5.853 8.682-5.857 1.741 0 3.447.486 4.928 1.402.535-.495.592-1.306.613-2.035.15-5.216.295-10.432.434-15.649.22-8.068.429-16.243-1.427-24.097-.838-3.547-2.142-7.079-4.532-9.83-1.258-1.448-5.531-5.263-7.597-3.64-.929.729-.712 2.715-.859 3.721-.222 1.59-.685 3.137-1.374 4.587zm88.516-8.546c.676 2.105.716 4.354.73 6.564.027 4.509-.033 9.018-.18 13.526-.075 2.308-.179 4.648-.878 6.848-.462 1.451-1.174 2.812-1.651 4.258-1.428 4.335-.648 9.036-.525 13.598.086 1.477-.04 2.958-.374 4.399-.754 2.828-2.78 5.113-4.194 7.676-1.342 2.434-2.153 5.162-3.756 7.432-1.604 2.271-4.38 4.07-7.071 3.373-2.039-.528-3.488-2.333-4.49-4.185-2.186-4.073-2.934-8.766-2.123-13.317 1.006-5.537 4.259-10.449 5.432-15.953 1.611-7.558-.837-15.358-.765-23.086-.033-1.211.132-2.42.487-3.578.615-1.766 1.937-3.175 3.157-4.591 1.526-1.769 2.943-3.629 4.244-5.569.874-1.304 2.061-4.656 3.61-4.934 3.46-.623 7.489 4.866 8.347 7.539z" fill="#ed1c24"/><path d="m49.453 208.796c-1.913-.48-3.884-.69-5.855-.622-7.701.426-13.807 6.878-13.807 14.591 0 .884.08 1.767.24 2.636.407 2.221 1.322 4.315 2.32 6.34 1.553 3.152 3.415 6.296 6.29 8.315 1.681 1.181 3.628 1.918 5.551 2.642l15.14 5.704c2.227.839 4.455 1.678 6.704 2.456 11.301 3.906 23.083 6.248 35.018 6.962 3.635.216 7.326.276 10.872-.551.842-.197 1.74-.489 2.227-1.203.289-.503.459-1.065.498-1.643l.931-6.523c.131-.918.258-1.885-.079-2.749-.427-1.096-1.497-1.786-2.517-2.372-9.953-5.716-21.575-8.87-29.954-16.717-1.972-1.847-3.622-4.775-6.019-6.03-2.717-1.422-5.918-2.235-8.727-3.546-6.14-2.866-12.177-6.16-18.833-7.69z" fill="#202527"/><path d="m64.569 217.589c5.351 1.677 27.945 13.294 31.818 17.351-.519.187-18.132-9.684-18.66-9.842-4.804-1.442-9.635-2.893-14.197-5.003-.917-.425-5.962-2.42-5.733-3.578.257-1.306 5.822.774 6.772 1.072z" fill-opacity=".1"/><path d="m131.332 261.202c.303.023.605-.066.848-.249.215-.277.311-.629.265-.977l-.025-8.885c-2.555-1.217-5.413-1.608-8.218-1.983l-13.09-1.749c.301.04-2.046 5.637-1.687 6.385.635 1.317 5.483 2.484 6.851 3.106 4.756 2.162 9.699 4.539 15.056 4.352z" fill="#a0616a"/><path d="m90.264 251.06c-2.472.394-5.23.742-6.831 2.666-2.029 2.439-1.165 6.076-.197 9.098.144.612.433 1.18.842 1.656.661.652 1.673.748 2.6.806 2.253.143 4.652.255 6.621-.851.933-.523 1.704-1.288 2.573-1.912 1.452-.966 3.048-1.696 4.729-2.162 3.09-.972 6.271-1.628 9.493-1.956 1.264-.129 2.552-.212 3.74-.66 1.188-.447 2.289-1.335 2.634-2.557.456-1.615-.482-3.261-1.382-4.677-1.122-1.764-2.31-3.621-3.981-4.92-2.439-1.895-3.646-.44-6.103.772-4.65 2.295-9.618 3.878-14.738 4.697z" fill="#a0616a"/><path d="m83.805 253.286-15.692-4.638c-1.909-.564-3.85-1.133-5.84-1.132-1.99.002-4.072.655-5.363 2.169-1.217 1.428-1.565 3.38-1.869 5.232l-.648 3.961c-.33 2.013-.661 4.064-.364 6.082s1.327 4.034 3.118 5.011c2.171 1.185 4.833.606 7.256.11 4.896-1 9.875-1.534 14.871-1.594 1.879-.023 3.849.001 5.508-.879 1.973-1.045 3.154-3.256 3.357-5.48.308-3.383-.819-7.803-4.334-8.842zm53.695-4.042c2.034-.356 3.83-1.512 5.779-2.195 2.744-.96 5.717-.96 8.624-.95 1.067.004 2.204.028 3.092.62 1.281.852 1.609 2.558 1.826 4.081l1.314 9.188c.247 1.728.493 3.502.107 5.205-.385 1.702-1.546 3.344-3.235 3.783-2.052.534-4.064-.777-6.001-1.638-4.843-2.153-10.472-1.603-15.521-3.211-.937-.299-1.941-.755-2.323-1.661-.173-.51-.235-1.052-.181-1.588.087-2.953-.536-6.986.353-9.808.799-2.539 3.895-1.826 6.166-1.826z" fill="#202527"/><path d="m170.709 205.098c3.135-.786 6.386-1.008 9.599-.656 2.567.283 5.211.997 7.084 2.773 2.281 2.162 3.014 5.506 3.075 8.648.1 6.256-1.977 12.357-5.872 17.254-.952 1.239-2.083 2.328-3.357 3.232-1.375.859-2.84 1.565-4.368 2.105l-33.906 13.373c-8.92 3.518-17.872 7.047-27.176 9.366-.287.138-.601.209-.918.209-.83 0-1.588-.487-1.932-1.242-2.971-4.243-5.463-8.803-7.431-13.594-.133-.164-.206-.368-.206-.579 0-.388.246-.736.611-.865l23.982-13.779c1.718-.987 3.455-1.989 4.881-3.363 1.036-1.005 1.885-2.186 2.506-3.489.497-1.039.544-3.489 1.179-4.256.621-.752 2.748-.812 3.73-1.107 1.386-.424 2.742-.937 4.062-1.536 5.364-2.4 10.141-5.887 15.284-8.697 2.884-1.649 5.967-2.925 9.173-3.797z" fill="#202527"/><path d="m157.113 215.389c-4.12 3.094-9.455 5.939-13.539 9.115-1.393 1.084-24.626 14.146-24.955 15.88 3.81.642 28.078-16.335 31.551-18.029 3.472-1.694 6.55-4.083 9.6-6.455.777-.604 4.071-2.421 1.84-3.096-1.257-.38-3.569 1.966-4.497 2.585z" fill-opacity=".1"/><path d="m128.763 114.548h-36.168c-3.039 0-5.54 2.501-5.54 5.54v2.029h-.393v4.537h.393v3.176h-.393v2.723h.393v33.478c0 3.04 2.501 5.541 5.54 5.541h36.168c3.039 0 5.54-2.501 5.54-5.541v-45.943c0-3.039-2.501-5.54-5.54-5.54z" fill="#424c51"/><path d="m134.511 71.753-18.344-9.609-25.332 3.931-5.241 23.148 13.047-.502 3.644-8.504v8.364l6.02-.231 3.495-13.54 2.183 14.413 21.402-.436z" fill="#202527"/><path d="m72.202 202.1c.907 1.353 1.969 2.676 3.425 3.406 1.819.913 4.064.75 5.886-.157 1.805-.969 3.284-2.451 4.248-4.259 1.993-3.521 2.406-7.733 2.157-11.771-.248-4.039-1.111-8.015-1.492-12.043-.278-2.928-.3-5.873-.323-8.814-.004-.618.006-1.284.371-1.782.441-.603 1.25-.77 1.966-.982 4.024-1.196 6.695-4.967 8.609-8.703 1.279-2.494 2.391-5.22 2.144-8.012-.246-2.792-2.253-5.604-5.041-5.889-2.299-.235-4.422 1.225-6.08 2.834-4.182 4.085-6.871 9.459-7.633 15.255-.364 2.838-.259 5.754-1.032 8.51-1.648 5.884-6.806 9.492-9.377 14.787-2.832 5.834-1.269 12.458 2.172 17.62zm75.906-22.48c-1.185 2.755-3.436 4.917-6.236 5.992-1.724.692-3.626.809-5.421.332-1.803-.501-3.273-1.816-3.972-3.552-.275-.864-.425-1.763-.447-2.669-.258-3.968-.158-8.057 1.283-11.763.556-1.429 1.305-2.785 1.744-4.255.501-1.676.58-3.444.657-5.192l.474-10.827c.078-.786.024-1.58-.161-2.348-.473-1.566-1.937-2.584-3.28-3.519-3.245-2.256-6.451-4.889-8.023-8.514-.481-1.11-.799-2.343-.554-3.527.443-2.15 2.613-3.542 4.757-4.011.747-.163 1.509-.246 2.273-.246 5.154 0 9.603 3.744 10.485 8.821.212 1.222.209 2.47.333 3.704.264 2.618 1.095 5.141 1.615 7.719 1.28 6.352.617 12.918 1.883 19.269 1.058 5.311 5.05 8.775 2.59 14.586z" fill="#a0616a"/></g><circle cx="111.163" cy="134.368" fill="#7d7d7d" r="4.537"/><path d="m302.692 139.225c-13.334 0-24.307 10.973-24.307 24.308s10.973 24.308 24.307 24.308c13.335 0 24.308-10.973 24.308-24.308s-10.973-24.308-24.308-24.308zm12.013 18.143c.013.262.02.531.02.8 0 8.201-6.236 17.657-17.65 17.657-3.368.007-6.665-.968-9.488-2.804 3.278.398 6.584-.526 9.18-2.568-2.646-.053-4.981-1.789-5.793-4.308.384.077.774.116 1.165.115.551 0 1.1-.073 1.632-.217-2.879-.59-4.967-3.143-4.974-6.082v-.077c.862.484 1.829.75 2.817.775-2.714-1.809-3.564-5.464-1.927-8.284 3.143 3.877 7.793 6.237 12.778 6.485-.109-.464-.162-.939-.16-1.415v-.007c0-3.399 2.797-6.197 6.196-6.197 1.716 0 3.356.713 4.527 1.966 1.389-.272 2.721-.781 3.937-1.505-.462 1.437-1.432 2.657-2.727 3.432 1.229-.149 2.428-.479 3.56-.98-.832 1.247-1.879 2.335-3.093 3.214z" fill="#424c51" fill-rule="nonzero"/><circle cx="294.876" cy="71.614" fill="#424c51" r="4.319"/><path d="m300.276 60.816h-10.799c-2.958.008-5.39 2.44-5.399 5.399v10.798c.009 2.959 2.441 5.391 5.399 5.399h10.799c2.958-.008 5.39-2.44 5.399-5.399v-10.798c-.009-2.959-2.441-5.391-5.399-5.399zm-5.4 17.277c-3.554 0-6.479-2.925-6.479-6.479s2.925-6.479 6.479-6.479c3.555 0 6.479 2.925 6.479 6.479-.001 3.554-2.925 6.478-6.479 6.479zm7.019-11.878c-.888 0-1.62-.731-1.62-1.62 0-.888.732-1.62 1.62-1.62.889 0 1.62.732 1.62 1.62v.004c0 .887-.729 1.616-1.616 1.616z" fill="#424c51" fill-rule="nonzero"/><path d="m294.599 46.216c-14.058 0-25.625 11.567-25.625 25.625s11.567 25.625 25.625 25.625 25.626-11.567 25.626-25.625-11.568-25.625-25.626-25.625zm13.235 30.797c-.012 4.142-3.416 7.547-7.558 7.559h-10.799c-4.142-.012-7.546-3.417-7.559-7.559v-10.798c.013-4.142 3.417-7.547 7.559-7.559h10.799c4.142.012 7.546 3.417 7.558 7.559zm-117.18-77.013c-13.832 0-25.214 11.382-25.214 25.214s11.382 25.214 25.214 25.214 25.214-11.382 25.214-25.214-11.382-25.214-25.214-25.214zm7.95 15.257h-3.228c-2.203 0-2.624 1.042-2.624 2.578v3.264h5.248l-.685 5.121h-4.563v13.898h-5.852v-13.898h-4.197v-5.121h4.197v-3.785c0-4.535 3.146-7.004 7.196-7.004 1.939 0 4.023.146 4.508.21z" fill="#424c51" fill-rule="nonzero"/></svg>