<svg width="1280" height="709" viewBox="0 0 1280 709" fill="none" xmlns="http://www.w3.org/2000/svg">
<path d="M4.65495 25.4446H3.65495V26.4446V298.447V299.447H4.65495H374.881H375.881V298.447V26.4446V25.4446H374.881H4.65495Z" fill="white" stroke="black" stroke-width="2"/>
<rect x="5" y="26" width="370" height="143" fill="url(#paint0_linear)"/>
<path d="M147.434 99.9996L149.299 89.807H153.184L149.734 106.062H145.67L143.493 96.7956L141.361 106.062H137.309L133.848 89.807H137.744L139.608 99.9996L141.841 89.807H145.168L147.434 99.9996Z" fill="white"/>
<path d="M167.08 99.1735H160.918V103.047H168.197V106.062H156.999V89.807H168.219V92.8324H160.918V96.2597H167.08V99.1735Z" fill="white"/>
<path d="M172.08 106.062V89.807H177.918C180.01 89.807 181.599 90.1903 182.685 90.9569C183.779 91.7235 184.326 92.8362 184.326 94.2949C184.326 95.1359 184.133 95.8541 183.746 96.4495C183.359 97.0449 182.789 97.4841 182.038 97.7669C182.886 97.9901 183.537 98.4069 183.991 99.0172C184.445 99.6275 184.672 100.372 184.672 101.25C184.672 102.843 184.166 104.041 183.154 104.845C182.149 105.641 180.657 106.047 178.677 106.062H172.08ZM175.998 99.1512V103.047H178.566C179.273 103.047 179.816 102.887 180.196 102.567C180.575 102.24 180.765 101.782 180.765 101.194C180.765 99.8396 180.092 99.1586 178.744 99.1512H175.998ZM175.998 96.5835H178.041C178.897 96.5761 179.507 96.4198 179.872 96.1146C180.237 95.8095 180.419 95.3592 180.419 94.7638C180.419 94.0791 180.222 93.5879 179.827 93.2902C179.433 92.985 178.797 92.8324 177.918 92.8324H175.998V96.5835Z" fill="white"/>
<path d="M197.509 101.741C197.509 101.168 197.304 100.722 196.895 100.402C196.493 100.082 195.782 99.7503 194.762 99.408C193.743 99.0656 192.909 98.7344 192.262 98.4144C190.155 97.3799 189.102 95.9583 189.102 94.1498C189.102 93.2492 189.363 92.4566 189.884 91.7719C190.412 91.0797 191.156 90.5438 192.117 90.1643C193.077 89.7772 194.156 89.5837 195.354 89.5837C196.523 89.5837 197.568 89.7921 198.491 90.2089C199.421 90.6257 200.143 91.2211 200.657 91.9951C201.17 92.7617 201.427 93.64 201.427 94.6298H197.52C197.52 93.9674 197.315 93.4539 196.906 93.0892C196.504 92.7245 195.957 92.5422 195.265 92.5422C194.565 92.5422 194.011 92.6985 193.601 93.0111C193.199 93.3162 192.998 93.7069 192.998 94.1833C192.998 94.6 193.222 94.9796 193.668 95.322C194.115 95.6569 194.9 96.0067 196.024 96.3714C197.148 96.7286 198.071 97.1156 198.793 97.5324C200.549 98.5446 201.427 99.9401 201.427 101.719C201.427 103.14 200.891 104.257 199.82 105.068C198.748 105.879 197.278 106.285 195.41 106.285C194.093 106.285 192.898 106.05 191.826 105.582C190.762 105.105 189.958 104.458 189.415 103.639C188.879 102.813 188.611 101.864 188.611 100.792H192.541C192.541 101.663 192.764 102.307 193.211 102.724C193.665 103.133 194.398 103.338 195.41 103.338C196.057 103.338 196.567 103.2 196.939 102.925C197.319 102.642 197.509 102.247 197.509 101.741Z" fill="white"/>
<path d="M209.898 106.062H205.991V89.807H209.898V106.062Z" fill="white"/>
<path d="M227.334 92.8324H222.455V106.062H218.537V92.8324H213.748V89.807H227.334V92.8324Z" fill="white"/>
<path d="M241.365 99.1735H235.202V103.047H242.481V106.062H231.284V89.807H242.504V92.8324H235.202V96.2597H241.365V99.1735Z" fill="white"/>
<rect x="123.181" y="78.4822" width="129.466" height="39.2816" stroke="white" stroke-width="2"/>
<rect x="56.1304" y="209.584" width="71.7664" height="10.1616" fill="#116DA6"/>
<rect x="61.2119" y="231.176" width="58.4293" height="5.71591" fill="#C4C4C4"/>
<rect x="61.2119" y="242.608" width="58.4293" height="5.71591" fill="#C4C4C4"/>
<rect x="152.032" y="210.218" width="71.7664" height="10.1616" fill="#116DA6"/>
<rect x="157.112" y="231.812" width="58.4293" height="5.71591" fill="#C4C4C4"/>
<rect x="157.112" y="243.243" width="58.4293" height="5.71591" fill="#C4C4C4"/>
<rect x="247.296" y="210.218" width="71.7664" height="10.1616" fill="#116DA6"/>
<rect x="252.377" y="231.812" width="58.4293" height="5.71591" fill="#C4C4C4"/>
<rect x="252.377" y="243.243" width="58.4293" height="5.71591" fill="#C4C4C4"/>
<path d="M2.76653 335.59H1.76653V336.59V610.666V611.666H2.76653H375H376V610.666V336.59V335.59H375H2.76653Z" fill="white" stroke="black" stroke-width="2"/>
<rect x="3" y="368" width="372" height="120" fill="#F2FAFF"/>
<line x1="357.79" y1="352.476" x2="304.249" y2="352.476" stroke="#686868" stroke-width="5"/>
<line x1="230.313" y1="352.476" x2="179.959" y2="352.476" stroke="#686868" stroke-width="5"/>
<line x1="287.677" y1="352.476" x2="248.16" y2="352.476" stroke="#686868" stroke-width="5"/>
<path d="M229.038 394.592L89.4509 487.013H315.086L229.038 394.592Z" fill="#DCEBF4"/>
<path d="M292.139 434.11L249.434 487.013H334.844L292.139 434.11Z" fill="#E0EEF7"/>
<rect x="56.3069" y="520.794" width="278.538" height="10.1982" fill="#676767"/>
<rect x="56.3069" y="539.916" width="226.272" height="5.73647" fill="#C4C4C4"/>
<rect x="56.3069" y="553.301" width="234.558" height="5.73647" fill="#C4C4C4"/>
<path d="M56.3069 567.324H274.293V573.061H56.3069V567.324Z" fill="#C4C4C4"/>
<rect x="56.3069" y="580.708" width="244.756" height="5.73647" fill="#C4C4C4"/>
<rect x="409.548" y="9.51904" width="781.352" height="625.481" fill="white" stroke="black" stroke-width="2"/>
<rect x="411.039" y="10.0356" width="778.5" height="53.2029" fill="#116DA6"/>
<path d="M757.197 39.3181L759.553 26.4372H764.463L760.104 46.9789H754.968L752.217 35.269L749.522 46.9789H744.401L740.027 26.4372H744.951L747.307 39.3181L750.129 26.4372H754.333L757.197 39.3181Z" fill="white"/>
<path d="M779.136 38.2741H771.348V43.1697H780.547V46.9789H766.396V26.4372H780.575V30.2605H771.348V34.5918H779.136V38.2741Z" fill="white"/>
<path d="M782.564 46.9789V26.4372H789.943C792.586 26.4372 794.594 26.9216 795.967 27.8904C797.35 28.8591 798.041 30.2653 798.041 32.1087C798.041 33.1716 797.796 34.0792 797.307 34.8316C796.818 35.5841 796.099 36.139 795.149 36.4964C796.221 36.7786 797.044 37.3053 797.618 38.0766C798.191 38.8478 798.478 39.7884 798.478 40.8982C798.478 42.911 797.839 44.4253 796.559 45.4411C795.29 46.4475 793.404 46.9601 790.902 46.9789H782.564ZM787.516 38.2459V43.1697H790.761C791.655 43.1697 792.341 42.9674 792.821 42.563C793.3 42.1492 793.54 41.5707 793.54 40.8277C793.54 39.1159 792.689 38.2553 790.987 38.2459H787.516ZM787.516 35.0009H790.098C791.18 34.9915 791.951 34.794 792.412 34.4084C792.873 34.0228 793.103 33.4537 793.103 32.7013C793.103 31.836 792.854 31.2152 792.355 30.839C791.857 30.4534 791.053 30.2605 789.943 30.2605H787.516V35.0009Z" fill="white"/>
<path d="M811.811 41.519C811.811 40.7948 811.552 40.2304 811.035 39.826C810.527 39.4216 809.629 39.003 808.34 38.5703C807.051 38.1377 805.998 37.7191 805.18 37.3147C802.518 36.0073 801.187 34.2109 801.187 31.9253C801.187 30.7873 801.516 29.7856 802.175 28.9203C802.842 28.0455 803.783 27.3683 804.996 26.8887C806.21 26.3996 807.573 26.155 809.088 26.155C810.564 26.155 811.886 26.4184 813.052 26.9451C814.228 27.4718 815.14 28.2242 815.789 29.2024C816.438 30.1712 816.763 31.2811 816.763 32.532H811.825C811.825 31.6949 811.566 31.0459 811.049 30.585C810.541 30.1242 809.85 29.8937 808.975 29.8937C808.091 29.8937 807.39 30.0913 806.873 30.4863C806.365 30.8719 806.111 31.3657 806.111 31.9677C806.111 32.4944 806.393 32.974 806.957 33.4067C807.522 33.83 808.514 34.272 809.934 34.7329C811.354 35.1844 812.521 35.6734 813.433 36.2002C815.653 37.4793 816.763 39.2428 816.763 41.4908C816.763 43.2872 816.085 44.6981 814.731 45.7233C813.377 46.7485 811.519 47.2611 809.158 47.2611C807.493 47.2611 805.984 46.9648 804.629 46.3722C803.284 45.7703 802.269 44.952 801.582 43.9174C800.905 42.8734 800.566 41.6742 800.566 40.3198H805.532C805.532 41.4202 805.815 42.2338 806.379 42.7605C806.953 43.2778 807.879 43.5365 809.158 43.5365C809.977 43.5365 810.621 43.3625 811.091 43.0145C811.571 42.6571 811.811 42.1586 811.811 41.519Z" fill="white"/>
<path d="M824.579 46.9789H819.641V26.4372H824.579V46.9789Z" fill="white"/>
<path d="M843.724 30.2605H837.558V46.9789H832.606V30.2605H826.554V26.4372H843.724V30.2605Z" fill="white"/>
<path d="M858.566 38.2741H850.778V43.1697H859.976V46.9789H845.826V26.4372H860.005V30.2605H850.778V34.5918H858.566V38.2741Z" fill="white"/>
<rect x="508.58" y="118.181" width="171.299" height="206.385" fill="#F5F5F5"/>
<rect x="921.349" y="118.181" width="171.299" height="149.629" fill="#8CC63F"/>
<rect x="714.965" y="118.181" width="171.299" height="128.99" fill="#F5F5F5"/>
<rect x="508.58" y="352.427" width="171.299" height="208.448" fill="#F5F5F5"/>
<rect x="921.349" y="308.055" width="171.299" height="187.81" fill="#F5F5F5"/>
<rect x="923.279" y="523.25" width="168.176" height="77.9351" fill="#FFC814"/>
<rect x="714.084" y="474.028" width="172.278" height="147.667" fill="#F5F5F5"/>
<rect x="714.965" y="278.129" width="171.299" height="172.331" fill="#116DA6"/>
<path fill-rule="evenodd" clip-rule="evenodd" d="M1132.89 36.1665L1171.07 36.1665V40.2683L1132.89 40.2683V36.1665Z" fill="white" fill-opacity="0.75"/>
<path fill-rule="evenodd" clip-rule="evenodd" d="M1132.89 26.3945L1171.07 26.3945V30.4963L1132.89 30.4963V26.3945Z" fill="white" fill-opacity="0.75"/>
<path fill-rule="evenodd" clip-rule="evenodd" d="M1132.89 45.947L1171.07 45.947V50.0488L1132.89 50.0488V45.947Z" fill="white" fill-opacity="0.75"/>
<path d="M1213.61 137.532C1235.78 137.532 1253.75 120.806 1253.75 100.174C1253.75 79.5424 1235.78 62.8169 1213.61 62.8169C1191.45 62.8169 1173.48 79.5424 1173.48 100.174C1173.48 120.806 1191.45 137.532 1213.61 137.532Z" fill="#595959"/>
<path d="M1097.77 332.396L1087.68 346.432C1087.68 346.432 1039.24 356.457 1057.41 371.494C1075.57 386.532 1101.8 357.459 1101.8 357.459L1115.93 339.414L1097.77 332.396Z" fill="#FFB8B8"/>
<path d="M1149.8 171.86C1149.8 171.86 1136.73 171.86 1133.71 190.012C1130.7 208.165 1127.68 268.674 1127.68 268.674C1127.68 268.674 1085.45 324.14 1092.49 331.199C1099.53 338.258 1107.57 351.369 1112.6 349.352C1117.63 347.335 1160.86 287.835 1160.86 287.835L1149.8 171.86Z" fill="#3596D1"/>
<path opacity="0.1" d="M1149.8 171.86C1149.8 171.86 1136.73 171.86 1133.71 190.012C1130.7 208.165 1127.68 268.674 1127.68 268.674C1127.68 268.674 1085.45 324.14 1092.49 331.199C1099.53 338.258 1107.57 351.369 1112.6 349.352C1117.63 347.335 1160.86 287.835 1160.86 287.835L1149.8 171.86Z" fill="black"/>
<path d="M1190.59 120.368C1190.59 120.368 1189.59 159.612 1177.58 161.625C1165.58 163.637 1169.58 176.719 1169.58 176.719C1169.58 176.719 1208.6 199.863 1234.61 176.719L1239.61 164.644C1239.61 164.644 1221.6 151.562 1229.61 133.449L1190.59 120.368Z" fill="#FFB8B8"/>
<path d="M1122.94 362.181C1122.94 362.181 1063.33 473.112 1085.56 507.399C1107.78 541.687 1141.12 612.279 1146.17 612.279C1151.22 612.279 1179.51 598.16 1177.49 589.084C1175.47 580.008 1145.16 512.442 1137.08 506.391C1129 500.34 1133.04 484.205 1134.05 483.196C1135.06 482.188 1168.4 428.739 1168.4 428.739C1168.4 428.739 1167.39 513.45 1171.43 526.56C1175.47 539.67 1170.42 633.457 1175.47 637.49C1180.52 641.524 1203.76 648.583 1207.8 642.533C1211.84 636.482 1223.96 544.712 1215.88 523.535L1231.03 378.316L1122.94 362.181Z" fill="#2C3235"/>
<path d="M1177.14 631.761L1152.02 677.937C1152.02 677.937 1115.84 704.036 1140.96 708.052C1166.08 712.067 1181.16 702.029 1181.16 702.029L1203.27 685.967V639.791L1177.14 631.761Z" fill="#3C4245"/>
<path d="M1143.19 605.075L1156.32 636.541C1156.32 636.541 1161.37 649.737 1156.32 652.782C1151.27 655.827 1137.13 674.098 1146.22 676.128C1148.05 676.488 1149.91 676.674 1151.77 676.682C1159.34 676.81 1166.85 675.398 1173.86 672.53C1180.87 669.663 1187.23 665.399 1192.56 659.996L1200.74 651.767C1200.74 651.767 1172.7 586.857 1173.09 587.338C1173.48 587.819 1143.19 605.075 1143.19 605.075Z" fill="#3C4245"/>
<path d="M1215.89 144.599C1234.85 144.599 1250.22 129.23 1250.22 110.271C1250.22 91.3118 1234.85 75.9424 1215.89 75.9424C1196.93 75.9424 1181.56 91.3118 1181.56 110.271C1181.56 129.23 1196.93 144.599 1215.89 144.599Z" fill="#FFB8B8"/>
<path d="M1235.09 157.789L1224.49 168.408C1224.49 168.408 1192.19 180.543 1177.05 168.408C1177.05 168.408 1182.6 156.777 1182.6 157.789C1182.6 158.8 1138.7 165.374 1134.66 183.577C1130.63 201.781 1137.69 233.132 1137.69 233.132C1137.69 233.132 1109.43 366.627 1120.53 369.661C1131.64 372.695 1235.59 397.978 1234.58 378.763C1233.57 359.548 1242.66 280.665 1242.66 280.665L1277.98 212.906C1277.98 212.906 1272.93 190.657 1260.82 183.577C1248.71 176.498 1235.09 157.789 1235.09 157.789Z" fill="#3596D1"/>
<path d="M1190.64 355.619L1177.52 363.647C1177.52 363.647 1127.03 397.769 1153.28 403.791C1179.54 409.812 1194.68 379.705 1194.68 379.705L1204.78 367.662L1190.64 355.619Z" fill="#FFB8B8"/>
<path opacity="0.1" d="M1264.92 207.704L1273.95 216.757C1273.95 216.757 1279.97 301.249 1267.93 318.349C1255.88 335.448 1200.67 381.718 1197.66 378.7C1194.64 375.683 1175.57 360.595 1179.59 358.583C1183.6 356.571 1236.99 300.676 1236.99 300.676L1232.79 222.792L1264.92 207.704Z" fill="black"/>
<path d="M1269.4 204.169L1278.49 213.248C1278.49 213.248 1284.54 297.99 1272.43 315.14C1260.32 332.29 1204.82 378.696 1201.79 375.67C1198.77 372.643 1179.59 357.511 1183.63 355.493C1187.67 353.475 1241.33 297.415 1241.33 297.415L1237.11 219.301L1269.4 204.169Z" fill="#3596D1"/>
<path d="M1201.79 61.7104C1201.79 61.7104 1190.14 57.4832 1174.26 66.466L1182.73 68.5795C1182.73 68.5795 1170.02 69.6363 1168.43 86.545H1174.26C1174.26 86.545 1170.55 101.34 1174.26 105.567L1176.64 101.076L1183.52 114.814L1185.11 107.945L1188.29 109.002L1190.4 97.9056C1190.4 97.9056 1195.7 105.831 1199.93 106.36V99.4907C1199.93 99.4907 1211.58 112.701 1215.28 112.172L1209.99 104.775L1217.4 106.36L1214.23 101.076L1233.28 106.36L1229.05 101.076L1242.28 105.303L1248.64 107.945C1248.64 107.945 1257.64 87.3376 1244.93 73.0709C1232.23 58.8042 1213.7 55.6338 1201.79 61.7104Z" fill="#595959"/>
<defs>
<linearGradient id="paint0_linear" x1="338.382" y1="84.0154" x2="34.1763" y2="158.573" gradientUnits="userSpaceOnUse">
<stop stop-color="#A61111"/>
<stop offset="1" stop-color="#479FD6"/>
</linearGradient>
</defs>
</svg>
